<svg id="Camada_1" data-name="Camada 1" xmlns="http://www.w3.org/2000/svg" viewBox="0 0 180.53 200"><defs><style>.cls-1{fill:#5f96a5;}.cls-2{fill:#376473;}.cls-3{fill:#ffc3a5;}.cls-4,.cls-6,.cls-7{fill:#281e1e;}.cls-5{fill:#ebc8be;}.cls-6{stroke:#281e1e;stroke-miterlimit:10;}.cls-7{font-size:16.95px;font-family:DeLittleChromatic-Regular, DeLittle Chromatic;}.cls-8{letter-spacing:-0.02em;}</style></defs><title>add</title><path class="cls-1" d="M36.91,94.74l70.24,87.15,43.6-35.14L80.5,59.6,30.89,42.67ZM50.54,59.11a5,5,0,1,1-7-.78A5,5,0,0,1,50.54,59.11Z"/><path class="cls-2" d="M42.19,64.42S47.05,72.6,51.3,64l-.93.75-.84,1.09L48,66.64l-1.35,0-1.54-.36-1.34-.79-1.1-.87Z"/><path class="cls-2" d="M31.27,48.33s5.18-2.39,25.77,3c-16.4-5.86-26.42-9-26.42-9Z"/><path class="cls-2" d="M39.76,91.41s14.34,24,61.26,83.28L75.15,142.6,36.7,94.94Z"/><polygon class="cls-3" points="78.1 60.72 110.24 96.1 80.87 59.55 78.1 60.72"/><path class="cls-4" d="M36.89,95.07l-.57-.5c.19-.23,20-22.74,44.17-35.6l.36.67C56.84,72.44,37.09,94.85,36.89,95.07Z"/><path class="cls-4" d="M30,41.55l6.17,53.38V95L107,183l44.78-36.09L81,59Zm120.76,105.2-43.6,35.14L36.91,94.74l-6-52.07L80.5,59.6Z"/><path class="cls-4" d="M42.78,65.36a5,5,0,1,0,.74-7A5,5,0,0,0,42.78,65.36Zm6.55.18a4.25,4.25,0,1,1,.62-6A4.23,4.23,0,0,1,49.33,65.54Z"/><path class="cls-5" d="M47.07,43.06v-.17a2.64,2.64,0,0,0-.48-1h0c-.24-.38-1.1-.35-1.1-.35l.14.39h0a4.7,4.7,0,0,1,.31,1.18v.11A49.83,49.83,0,0,1,45.12,50c-.86,5.08-1.31,8.26-.28,9.7A2.75,2.75,0,0,0,47.11,61a2.84,2.84,0,0,0,1.66-.68,5.23,5.23,0,0,0,.9-1l-1-.62c-.26.33-.91,1.09-1.62,1.11A1.7,1.7,0,0,1,45.77,59c-.82-1.14-.13-5.23.48-8.83A39.62,39.62,0,0,0,47.07,43.06Z"/><path class="cls-5" d="M46.88,41.68a6.28,6.28,0,0,1,.5,1.15l.42-.08c.73-.17,1.48-.43,1.44-1.1,0-.33-.05-.95-3.35-1.59-.68-.12-2.18-.24-2.18-.24a1.56,1.56,0,0,0,0,1h.18l1.08.18.57.06h0Z"/><path class="cls-5" d="M19.64,34.72c5.84,2.82,18.34,4.9,18.87,5l3.37.74a4.63,4.63,0,0,1,.06-1.16l-3.24-.71c-.52-.08-12.92-2.16-18.56-4.89-4.81-2.33-10.1-8-8-21.59C14.21-1-6.62-5.51-7.5-5.69h-.09c-.12,0-13.42-1.23-18.73-10.7l-.92.74c5.46,9.75,18.1,11,19.53,11.1C-6.84-4.37,12.87.08,11,11.91,8.68,27,15.42,32.67,19.64,34.72Z"/><path class="cls-5" d="M45.25,41.89l-.36,0a1.67,1.67,0,0,1-1.7-1.64h0a.09.09,0,0,1,0-.06h0a1.31,1.31,0,0,1,.25-.75c.34-.51,1.1-.27,1.61,0-.74-.72-1.39-1-1.91-.93a1.08,1.08,0,0,0-.78.77l-.06.16a1.83,1.83,0,0,0-.07,1.16l0,.13A2.51,2.51,0,0,0,43,42.1a3.74,3.74,0,0,0,2.59.9A7.92,7.92,0,0,0,45.25,41.89Z"/><path class="cls-4" d="M-26.15-16.87l-1.52,1.23C-22.17-5.56-9.19-4.29-7.76-4.18c.83.18,20.2,4.55,18.41,16C8.27,27.17,15.16,33,19.48,35.06c5.88,2.85,18.43,4.94,19,5l3.46.75a2.88,2.88,0,0,0,.83,1.54,4.11,4.11,0,0,0,2.83,1,51.25,51.25,0,0,1-.82,6.51c-.87,5.18-1.32,8.43-.21,10a2.87,2.87,0,0,0,4.48.77,5.42,5.42,0,0,0,1.09-1.21l.1-.16-1.61-1-.1.17c-.18.28-.86,1.07-1.42,1.09-.3,0-.64-.25-1-.73-.73-1,0-5.37.55-8.55a42.88,42.88,0,0,0,.83-7l.43-.09c.49-.11,1.79-.41,1.74-1.48,0-.65-.35-1.33-3.78-2-1.07-1.23-2-1.77-2.79-1.59a1.37,1.37,0,0,0-1,.85l-3.25-.71h-.05c-.52-.09-12.86-2.16-18.46-4.87-4.69-2.27-9.84-7.79-7.76-21.18s-19.07-18-20-18.23h-.12c-.13,0-13.28-1-18.43-10.47C-26-16.62-26.15-16.87-26.15-16.87Zm71.68,58h0L45,41.06l-1.08-.18H43.7a1.56,1.56,0,0,1,0-1s1.5.12,2.18.24c3.3.64,3.34,1.26,3.35,1.59,0,.67-.71.93-1.44,1.1l-.42.08a6.28,6.28,0,0,0-.5-1.15C46.73,41.36,46.29,41.17,45.53,41.11ZM45.77,59a1.7,1.7,0,0,0,1.31.89c.71,0,1.36-.78,1.62-1.11l1,.62a5.23,5.23,0,0,1-.9,1,2.84,2.84,0,0,1-1.66.68,2.75,2.75,0,0,1-2.27-1.37c-1-1.44-.58-4.62.28-9.7A49.83,49.83,0,0,0,46,43.2v-.11a5.74,5.74,0,0,0-.33-1.18h0l-.14-.39s.86,0,1.1.35h0a3.12,3.12,0,0,1,.48,1v.17a39.62,39.62,0,0,1-.82,7.11C45.64,53.77,45,57.86,45.77,59ZM43,42.1a2.51,2.51,0,0,1-.74-1.44l0-.13a1.83,1.83,0,0,1,.07-1.16l.06-.16a1.08,1.08,0,0,1,.78-.77c.52-.11,1.17.21,1.91.93-.51-.24-1.27-.48-1.61,0a1.31,1.31,0,0,0-.25.75h0a.09.09,0,0,0,0,.06h0a1.67,1.67,0,0,0,1.7,1.64l.36,0A7.92,7.92,0,0,1,45.58,43,3.74,3.74,0,0,1,43,42.1ZM-7.71-4.56c-1.43-.11-14.07-1.35-19.53-11.1l.91-.73C-21-6.93-7.71-5.71-7.59-5.7h.09C-6.62-5.51,14.21-1,12.16,12.1c-2.12,13.62,3.17,19.26,8,21.59,5.64,2.73,18,4.81,18.56,4.89l3.24.71a4.63,4.63,0,0,0-.06,1.16l-3.37-.74c-.53-.09-13-2.17-18.87-5-4.22-2-11-7.73-8.61-22.81C12.87.08-6.84-4.37-7.71-4.56Z"/><polygon class="cls-6" points="106.61 108.75 97.78 118.24 89.87 107.71 82.31 114.38 92.16 123.31 81.93 129.69 87.95 138.68 97.66 129.46 103.9 140.42 112.25 133.05 103.74 124.02 114.04 116.52 106.61 108.75"/><text class="cls-7" transform="translate(111.23 165.49) rotate(-39.88)"><tspan class="cls-8">A</tspan><tspan x="9.78" y="0">DD</tspan></text></svg>