<svg xmlns="http://www.w3.org/2000/svg" viewBox="0 0 2000 400"><defs><style>.cls-1{opacity:0.2;}.cls-2{isolation:isolate;}.cls-3{fill:#41415d;}.cls-4{fill:#28283a;}.cls-5{fill:#3e3e5a;}.cls-6{fill:#20202f;}.cls-7{fill:#16161f;}.cls-8{fill:#0a0a0f;}.cls-9{fill:#111119;}.cls-10{fill:#0d0d12;}.cls-11{fill:#484859;}.cls-12{fill:#454555;}.cls-13{fill:#6d6d88;}.cls-14{fill:#393951;}.cls-15{fill:#393953;}.cls-16{fill:#3f3f5a;}.cls-17{fill:#4b4b5d;}.cls-18{fill:#686882;}.cls-19{fill:#424252;}.cls-20{fill:#14141d;}.cls-21{fill:#0b0b0f;}.cls-22{fill:#12121a;}.cls-23{fill:#0d0d13;}.cls-24{fill:#0b0b10;}.cls-25{fill:#4d4d6e;}.cls-26{fill:#35354d;}.cls-27{fill:#13131c;}.cls-28{fill:#101018;}.cls-29{fill:#101017;}.cls-30{fill:#0c0c11;}.cls-31{fill:#4c4c6d;}.cls-32{fill:#34344a;}.cls-33{fill:#3a3a48;}.cls-34{fill:#6f6f89;}.cls-35{fill:#6a6a84;}.cls-36{fill:#2f2f44;}.cls-37{fill:#4d4d6f;}.cls-38{fill:#3b3b49;}.cls-39{fill:#6d6d87;}.cls-40{fill:#242434;}.cls-41{fill:#1d1d2a;}.cls-42{fill:#161620;}.cls-43{fill:#222231;}.cls-44{fill:#696983;}.cls-45{fill:#3f3f4e;}.cls-46{fill:#525266;}.cls-47{fill:#ffc3a5;opacity:0.1;}</style></defs><title>bgtest</title><g id="Camada_4" data-name="Camada 4"><g class="cls-1"><g class="cls-2"><polygon class="cls-3" points="884.74 99.04 922.52 134.79 882.58 217.78 844.8 182.03 884.74 99.04"/><polygon class="cls-4" points="844.8 182.03 882.58 217.78 794.13 198.51 756.35 162.76 844.8 182.03"/><polygon class="cls-5" points="796.3 79.77 884.74 99.04 844.8 182.03 756.35 162.76 796.3 79.77"/></g></g><g class="cls-1"><g class="cls-2"><polygon class="cls-6" points="1008.83 13.23 988.26 -8.03 1048.77 -5.21 1069.34 16.05 1008.83 13.23"/><polygon class="cls-7" points="923.81 279.02 903.24 257.77 988.26 -8.03 1008.83 13.23 923.81 279.02"/><polygon class="cls-6" points="1008.83 13.23 1069.34 16.05 984.32 281.84 923.81 279.02 1008.83 13.23"/></g></g><g class="cls-1"><g class="cls-2"><polygon class="cls-8" points="1104.84 136.3 1175.55 170.32 1131.05 158.72 1060.35 124.7 1104.84 136.3"/><polygon class="cls-9" points="1138.84 66.96 1209.54 100.97 1175.55 170.32 1104.84 136.3 1138.84 66.96"/><polygon class="cls-10" points="1094.34 55.37 1138.84 66.96 1104.84 136.3 1060.35 124.7 1094.34 55.37"/></g></g><g class="cls-1"><g class="cls-2"><polygon class="cls-11" points="829.12 231.06 815.9 267.17 798.78 277.93 812 241.82 829.12 231.06"/><polygon class="cls-12" points="812 241.82 798.78 277.93 767.41 257.44 780.63 221.34 812 241.82"/><polygon class="cls-13" points="797.75 210.57 829.12 231.06 812 241.82 780.63 221.34 797.75 210.57"/></g></g><g class="cls-1"><g class="cls-2"><polygon class="cls-14" points="1428.85 179.89 1389.87 154.49 1431.35 166.34 1470.33 191.74 1428.85 179.89"/><polygon class="cls-15" points="1394.41 236.57 1355.43 211.16 1389.87 154.49 1428.85 179.89 1394.41 236.57"/><polygon class="cls-16" points="1428.85 179.89 1470.33 191.74 1435.91 248.41 1394.41 236.57 1428.85 179.89"/></g></g><g class="cls-1"><g class="cls-2"><polygon class="cls-17" points="1471.97 112.01 1474.77 71.43 1480.2 100.45 1477.41 141.03 1471.97 112.01"/><polygon class="cls-18" points="1403.54 110.57 1406.34 69.99 1474.77 71.43 1471.97 112.01 1403.54 110.57"/><polygon class="cls-19" points="1471.97 112.01 1477.41 141.03 1408.97 139.6 1403.54 110.57 1471.97 112.01"/></g></g><g class="cls-1"><g class="cls-2"><polygon class="cls-20" points="1216.41 -37.4 1285.31 -41.88 1358.04 233.51 1289.14 237.99 1216.41 -37.4"/><polygon class="cls-8" points="1289.14 237.99 1358.04 233.51 1322.85 253.75 1253.94 258.23 1289.14 237.99"/><polygon class="cls-21" points="1216.41 -37.4 1289.14 237.99 1253.94 258.23 1181.21 -17.16 1216.41 -37.4"/></g></g><g class="cls-1"><g class="cls-2"><polygon class="cls-22" points="1086.76 172.93 1129.5 262.31 1113.19 277.43 1070.46 188.05 1086.76 172.93"/><polygon class="cls-23" points="1070.46 188.05 1113.19 277.43 1072.02 293.04 1029.28 203.67 1070.46 188.05"/><polygon class="cls-24" points="1086.76 172.93 1070.46 188.05 1029.28 203.67 1045.59 188.55 1086.76 172.93"/></g></g><g class="cls-1"><g class="cls-2"><polygon class="cls-25" points="1689.13 228.64 1738.69 230.64 1753.61 294.92 1704.06 292.92 1689.13 228.64"/><polygon class="cls-4" points="1704.06 292.92 1753.61 294.92 1701.08 310.14 1651.52 308.14 1704.06 292.92"/><polygon class="cls-26" points="1689.13 228.64 1704.06 292.92 1651.52 308.14 1636.6 243.87 1689.13 228.64"/></g></g><g class="cls-1"><g class="cls-2"><polygon class="cls-27" points="1586.43 23.78 1671.44 -14.51 1735.03 89.91 1650.02 128.2 1586.43 23.78"/><polygon class="cls-8" points="1650.02 128.2 1735.03 89.91 1685.74 160.71 1600.73 199 1650.02 128.2"/><polygon class="cls-8" points="1586.43 23.78 1650.02 128.2 1600.73 199 1537.14 94.58 1586.43 23.78"/></g></g><g class="cls-1"><g class="cls-2"><polygon class="cls-28" points="143.96 51.07 187.02 13.25 195.85 91 152.8 128.82 143.96 51.07"/><polygon class="cls-29" points="56.34 29.7 99.4 -8.12 187.02 13.25 143.96 51.07 56.34 29.7"/><polygon class="cls-30" points="143.96 51.07 152.8 128.82 65.18 107.45 56.34 29.7 143.96 51.07"/></g></g><g class="cls-1"><g class="cls-2"><polygon class="cls-4" points="554.47 186.11 543.3 149.66 554.09 106.24 565.26 142.69 554.47 186.11"/><polygon class="cls-31" points="565.26 142.69 554.09 106.24 611.83 103.28 623 139.73 565.26 142.69"/><polygon class="cls-32" points="623 139.73 612.21 183.16 554.47 186.11 565.26 142.69 623 139.73"/></g></g><g class="cls-1"><g class="cls-2"><polygon class="cls-33" points="706.11 94.71 694.88 110.31 636.72 99.01 647.94 83.42 706.11 94.71"/><polygon class="cls-33" points="647.94 83.42 636.72 99.01 642.96 50.46 654.18 34.87 647.94 83.42"/><polygon class="cls-34" points="712.35 46.16 706.11 94.71 647.94 83.42 654.18 34.87 712.35 46.16"/></g></g><g class="cls-1"><g class="cls-2"><polygon class="cls-33" points="290.83 186.93 283.2 151.08 300.92 -3.95 308.56 31.9 290.83 186.93"/><polygon class="cls-35" points="308.56 31.9 300.92 -3.95 355.43 -7 363.06 28.85 308.56 31.9"/><polygon class="cls-17" points="363.06 28.85 345.34 183.88 290.83 186.93 308.56 31.9 363.06 28.85"/></g></g><g class="cls-1"><g class="cls-2"><polygon class="cls-36" points="280.39 192.34 258.05 260.68 168.05 271.42 190.4 203.08 280.39 192.34"/><polygon class="cls-4" points="190.4 203.08 168.05 271.42 151.41 219.63 173.75 151.3 190.4 203.08"/><polygon class="cls-37" points="263.75 140.56 280.39 192.34 190.4 203.08 173.75 151.3 263.75 140.56"/></g></g><g class="cls-1"><g class="cls-2"><polygon class="cls-38" points="522.92 102.38 513.56 125.64 460.08 137.76 469.44 114.5 522.92 102.38"/><polygon class="cls-33" points="469.44 114.5 460.08 137.76 437.78 77.97 447.14 54.72 469.44 114.5"/><polygon class="cls-39" points="500.61 42.6 522.92 102.38 469.44 114.5 447.14 54.72 500.61 42.6"/></g></g><g class="cls-1"><g class="cls-2"><polygon class="cls-8" points="414.42 302.87 378.38 231.81 386.36 196.83 422.4 267.9 414.42 302.87"/><polygon class="cls-27" points="422.4 267.9 386.36 196.83 466.08 172.92 502.12 243.98 422.4 267.9"/><polygon class="cls-30" points="502.12 243.98 494.13 278.95 414.42 302.87 422.4 267.9 502.12 243.98"/></g></g><g class="cls-1"><g class="cls-2"><polygon class="cls-40" points="689.01 272.14 702.48 189.58 738.35 227.34 724.89 309.91 689.01 272.14"/><polygon class="cls-41" points="607.02 290.03 620.49 207.47 702.48 189.58 689.01 272.14 607.02 290.03"/><polygon class="cls-42" points="689.01 272.14 724.89 309.91 642.9 327.8 607.02 290.03 689.01 272.14"/></g></g><g class="cls-1"><g class="cls-2"><polygon class="cls-20" points="1871.39 138.9 1858.81 109.02 1852.23 59.51 1864.82 89.39 1871.39 138.9"/><polygon class="cls-43" points="1864.82 89.39 1852.23 59.51 1924.03 41.82 1936.61 71.7 1864.82 89.39"/><polygon class="cls-41" points="1936.61 71.7 1943.18 121.21 1871.39 138.9 1864.82 89.39 1936.61 71.7"/></g></g><g class="cls-1"><g class="cls-2"><polygon class="cls-10" points="1595.78 231 1564.76 278.08 1497.92 277.41 1528.94 230.33 1595.78 231"/><polygon class="cls-24" points="1528.94 230.33 1497.92 277.41 1465.22 216 1496.24 168.91 1528.94 230.33"/><polygon class="cls-27" points="1563.07 169.58 1595.78 231 1528.94 230.33 1496.24 168.91 1563.07 169.58"/></g></g><g class="cls-1"><g class="cls-2"><polygon class="cls-24" points="1903.26 228.86 1873 271.08 1808.91 280.09 1839.17 237.86 1903.26 228.86"/><polygon class="cls-8" points="1839.17 237.86 1808.91 280.09 1786.75 217.15 1817.01 174.92 1839.17 237.86"/><polygon class="cls-20" points="1881.1 165.91 1903.26 228.86 1839.17 237.86 1817.01 174.92 1881.1 165.91"/></g></g><g class="cls-1"><g class="cls-2"><polygon class="cls-44" points="1797.52 95.3 1822.75 125.32 1808.19 172.62 1782.95 142.61 1797.52 95.3"/><polygon class="cls-45" points="1782.95 142.61 1808.19 172.62 1758.48 180.7 1733.25 150.69 1782.95 142.61"/><polygon class="cls-46" points="1797.52 95.3 1782.95 142.61 1733.25 150.69 1747.81 103.39 1797.52 95.3"/></g></g></g><g id="Camada_5" data-name="Camada 5"><circle class="cls-47" cx="641.03" cy="144.14" r="88.29"/><circle class="cls-47" cx="773.95" cy="191.18" r="104.46"/><circle class="cls-47" cx="904.47" cy="113.96" r="139.28"/><circle class="cls-47" cx="884.64" cy="253.06" r="66.74"/><circle class="cls-47" cx="1044.2" cy="136.65" r="90.37"/><circle class="cls-47" cx="731.2" cy="46.65" r="90.37"/><circle class="cls-47" cx="1198.84" cy="186.07" r="84.98"/><circle class="cls-47" cx="1120.4" cy="264.75" r="66.32"/><circle class="cls-47" cx="1037.71" cy="237.75" r="46.43"/><circle class="cls-47" cx="1147.48" cy="128.01" r="48.91"/><circle class="cls-47" cx="936.54" cy="191.77" r="47.67"/><circle class="cls-47" cx="1309.25" cy="117.86" r="114.82"/><circle class="cls-47" cx="1134.77" cy="-14.66" r="126.34"/><circle class="cls-47" cx="1307.45" cy="280.95" r="73.37"/><circle class="cls-47" cx="1201.63" cy="288.95" r="47.67"/><circle class="cls-47" cx="975.77" cy="243.26" r="48.91"/><circle class="cls-47" cx="833.5" cy="306.5" r="34.5"/><circle class="cls-47" cx="957" cy="305" r="34"/><circle class="cls-47" cx="910" cy="339" r="44"/><circle class="cls-47" cx="864" cy="346" r="31"/><circle class="cls-47" cx="968.5" cy="405.5" r="31.5"/><circle class="cls-47" cx="935" cy="373" r="19"/><circle class="cls-47" cx="967" cy="342" r="30"/><circle class="cls-47" cx="1026.5" cy="310.5" r="42.5"/><circle class="cls-47" cx="1079.5" cy="336.5" r="25.5"/><circle class="cls-47" cx="1009" cy="352" r="18"/><circle class="cls-47" cx="963" cy="379" r="21"/><circle class="cls-47" cx="990.5" cy="364.5" r="18.5"/><circle class="cls-47" cx="1045" cy="358" r="19"/><circle class="cls-47" cx="1025.5" cy="375.5" r="16.5"/><circle class="cls-47" cx="1008.5" cy="395.5" r="18.5"/><circle class="cls-47" cx="995.5" cy="380.5" r="26.5"/><circle class="cls-47" cx="1032" cy="396" r="10"/><circle class="cls-47" cx="1046" cy="374" r="14"/><circle class="cls-47" cx="1069.5" cy="302.5" r="15.5"/><circle class="cls-47" cx="1108.5" cy="193.5" r="13.5"/><circle class="cls-47" cx="1101.5" cy="319.5" r="16.5"/><circle class="cls-47" cx="1146.5" cy="320.5" r="20.5"/><circle class="cls-47" cx="540.5" cy="49.5" r="71.5"/><circle class="cls-47" cx="1401" cy="21" r="123"/></g></svg>